# xmcd
#
# Track frame offsets:
#	150
#	14787
#	32338
#	44125
#	59592
#	77018
#	92869
#	114483
#	132245
#	151918
#	165963
#	182215
#	198034
#	212946
#	229119
#	245917
#	261495
#
# Disc length: 3803 seconds
#
# Revision: 1
# Processed by: cddbd v1.5.2PL0 Copyright (c) Steve Scherf et al.
# Submitted via: audiograbber 1.83.01
#
DISCID=f20ed911
DTITLE=Bruno e Marrone - Essencial
DYEAR=2010
DGENRE=Sertanejo
TTITLE0=Amor Não Vai Faltar
TTITLE1=Choram as Rosas
TTITLE2=Dormi na Praça (Acústico e Ao Vivo)
TTITLE3=Não Faz Mais Isso Comigo (Acústico)
TTITLE4=Inevitável
TTITLE5=Agora Vai/Passou da Conta
TTITLE6=Por Um Minuto
TTITLE7=Vai Dar Namoro
TTITLE8=Bijuteria
TTITLE9=Ficar por Ficar (Acústico)
TTITLE10=Coisa de Pele (Acústico)
TTITLE11=Ligação Urbana
TTITLE12=Doce Desejo (Ao Vivo)
TTITLE13=Menina (Querida)
TTITLE14=Deixa
TTITLE15=Que Pescar Que Nada
TTITLE16=Favo de Mel
EXTD=
EXTT0=
EXTT1=
EXTT2=
EXTT3=
EXTT4=
EXTT5=
EXTT6=
EXTT7=
EXTT8=
EXTT9=
EXTT10=
EXTT11=
EXTT12=
EXTT13=
EXTT14=
EXTT15=
EXTT16=
PLAYORDER=
